<svg width="1254" height="247" viewBox="0 0 1254 247" fill="none" xmlns="http://www.w3.org/2000/svg">
<rect x="48.8375" y="20.7828" width="109.128" height="165.383" fill="#FF0000" fill-opacity="0.1" stroke="#FF0000" stroke-width="1.56566"/>
<rect x="215.791" y="111.515" width="108.221" height="74.6499" fill="#FF0000" fill-opacity="0.1" stroke="#FF0000" stroke-width="1.56566"/>
<rect x="381.814" y="145.088" width="109.128" height="41.0787" fill="#FF0000" fill-opacity="0.1" stroke="#FF0000" stroke-width="1.56566"/>
<rect x="1076.84" y="183.195" width="110.036" height="2.97098" fill="#FF0000" fill-opacity="0.1" stroke="#FF0000" stroke-width="1.56566"/>
<rect x="547.861" y="156.882" width="109.128" height="29.2835" fill="#FF0000" fill-opacity="0.1" stroke="#FF0000" stroke-width="1.56566"/>
<rect x="892.65" y="183.195" width="100.962" height="3.8783" fill="#FF0000" fill-opacity="0.1" stroke="#FF0000" stroke-width="1.56566"/>
<rect x="703.025" y="178.658" width="109.128" height="7.50761" fill="#FF0000" fill-opacity="0.1" stroke="#FF0000" stroke-width="1.56566"/>
<path d="M574 246L578.573 233.675H580.579L585.22 246H583.35L582.381 243.331H576.72L575.768 246H574ZM579.525 235.426L577.247 241.852H581.837L579.525 235.426ZM591.853 236.82V238.469C591.53 238.418 591.241 238.401 590.986 238.401C589.558 238.401 588.844 239.183 588.844 241.206V246H587.297V236.854H588.81V238.452C589.269 237.415 590.187 236.854 591.394 236.803C591.547 236.803 591.666 236.803 591.853 236.82ZM594.632 236.854V234.559H596.179V236.854H597.913V238.095H596.179V243.518C596.179 244.47 596.247 244.708 597.131 244.708H597.913V246H596.791C595.04 246 594.632 245.609 594.632 243.705V238.095H593.187V236.854H594.632ZM600.734 236.854H602.281V246H600.734V236.854ZM600.734 233.675H602.281V235.545H600.734V233.675ZM612.436 239.523H610.821C610.566 238.435 609.75 238.01 608.662 238.01C607.761 238.01 606.741 238.333 606.741 239.166C606.741 239.897 607.251 240.22 608.135 240.407L609.427 240.662C611.093 240.968 612.555 241.631 612.555 243.382C612.555 245.201 610.923 246.221 608.832 246.221C606.435 246.221 605.092 244.64 604.905 243.042H606.537C606.792 244.215 607.506 244.912 608.866 244.912C610.039 244.912 610.991 244.419 610.991 243.552C610.991 242.617 610.124 242.26 609.138 242.039L607.778 241.767C606.537 241.495 605.177 240.951 605.177 239.234C605.177 237.619 606.809 236.684 608.832 236.684C610.821 236.684 612.147 237.772 612.436 239.523ZM615.809 236.854V234.559H617.356V236.854H619.09V238.095H617.356V243.518C617.356 244.47 617.424 244.708 618.308 244.708H619.09V246H617.968C616.217 246 615.809 245.609 615.809 243.705V238.095H614.364V236.854H615.809ZM628.596 239.523H626.981C626.726 238.435 625.91 238.01 624.822 238.01C623.921 238.01 622.901 238.333 622.901 239.166C622.901 239.897 623.411 240.22 624.295 240.407L625.587 240.662C627.253 240.968 628.715 241.631 628.715 243.382C628.715 245.201 627.083 246.221 624.992 246.221C622.595 246.221 621.252 244.64 621.065 243.042H622.697C622.952 244.215 623.666 244.912 625.026 244.912C626.199 244.912 627.151 244.419 627.151 243.552C627.151 242.617 626.284 242.26 625.298 242.039L623.938 241.767C622.697 241.495 621.337 240.951 621.337 239.234C621.337 237.619 622.969 236.684 624.992 236.684C626.981 236.684 628.307 237.772 628.596 239.523Z" fill="#7B7B7B"/>
<rect opacity="0.2" y="185" width="1254" height="2" fill="white"/>
<path d="M256.222 98.4255V96.6811C257.14 96.6811 257.824 96.5535 258.273 96.2985C258.721 96.0435 259.012 95.6303 259.145 95.059H261.042V106H258.395V98.4255H256.222ZM263.337 106V103.169H266.168V106H263.337ZM266.593 98.4255V96.6811C267.511 96.6811 268.194 96.5535 268.643 96.2985C269.092 96.0435 269.383 95.6303 269.516 95.059H271.413V106H268.766V98.4255H266.593ZM279.116 106H273.929V95.0743H278.81C280.136 95.0743 281.141 95.3294 281.825 95.8394C282.508 96.3495 282.85 97.1044 282.85 98.1041C282.85 98.5734 282.687 99.0325 282.36 99.4813C282.034 99.9302 281.656 100.226 281.228 100.369C281.799 100.532 282.273 100.838 282.651 101.287C283.039 101.726 283.232 102.246 283.232 102.848C283.232 103.878 282.875 104.664 282.161 105.204C281.447 105.735 280.432 106 279.116 106ZM276.515 99.5272H278.703C279.254 99.5272 279.662 99.415 279.927 99.1906C280.192 98.956 280.325 98.6397 280.325 98.2419C280.325 97.8338 280.187 97.5176 279.912 97.2931C279.636 97.0687 279.239 96.9565 278.718 96.9565H276.515V99.5272ZM276.515 101.363V104.118H278.887C279.458 104.118 279.891 103.995 280.187 103.751C280.483 103.506 280.631 103.164 280.631 102.725C280.631 101.817 280.05 101.363 278.887 101.363H276.515Z" fill="white"/>
<path d="M93.9607 7.30307C93.9607 7.77233 93.8842 8.19569 93.7312 8.57314C93.5782 8.95059 93.3384 9.29234 93.012 9.59838C92.6855 9.90442 92.3489 10.1697 92.0021 10.3941C91.6552 10.6185 91.2064 10.8684 90.6555 11.1439C89.9312 11.5111 89.4007 11.8325 89.0641 12.1079C88.7376 12.3833 88.5591 12.6639 88.5285 12.9495H93.976V15H85.5905V14.0666C85.5905 13.5259 85.6874 13.0209 85.8812 12.5517C86.0853 12.0722 86.376 11.6489 86.7535 11.2816C87.1309 10.9042 87.4931 10.593 87.8399 10.3482C88.1867 10.0931 88.605 9.82281 89.0947 9.53717C89.5945 9.25153 89.9465 9.0475 90.1505 8.92509C90.3545 8.79247 90.5841 8.62415 90.8391 8.42012C91.0941 8.21609 91.2625 8.02737 91.3441 7.85394C91.4257 7.68052 91.4665 7.48159 91.4665 7.25716C91.4665 6.83891 91.339 6.50736 91.0839 6.26253C90.8289 6.0177 90.4566 5.89528 89.9669 5.89528C89.467 5.89528 89.0641 6.0636 88.758 6.40025C88.452 6.73689 88.2837 7.16535 88.2531 7.68562H85.6976C85.7894 6.57367 86.2077 5.66575 86.9524 4.96186C87.7073 4.24776 88.7172 3.89071 89.9822 3.89071C91.1655 3.89071 92.1245 4.20696 92.859 4.83944C93.5935 5.47192 93.9607 6.29313 93.9607 7.30307ZM95.8141 15V12.1691H98.6449V15H95.8141ZM104.612 9.50656C103.888 9.50656 103.358 9.7718 103.021 10.3023H100.634L101.277 4.07434H108.178V6.12481H103.189L102.96 8.2824C103.48 7.80294 104.204 7.5632 105.133 7.5632C106.245 7.5632 107.142 7.91515 107.826 8.61905C108.52 9.32294 108.866 10.236 108.866 11.3581C108.866 12.4497 108.484 13.3627 107.719 14.0972C106.954 14.8215 105.928 15.1836 104.643 15.1836C103.317 15.1836 102.261 14.8623 101.476 14.2196C100.7 13.5667 100.272 12.6996 100.19 11.6182H102.837C102.878 12.0977 103.057 12.4905 103.373 12.7965C103.689 13.0923 104.102 13.2403 104.612 13.2403C105.153 13.2403 105.577 13.0668 105.883 12.72C106.189 12.3629 106.342 11.9192 106.342 11.3887C106.342 10.8378 106.194 10.389 105.898 10.0421C105.602 9.68509 105.174 9.50656 104.612 9.50656ZM115.732 15H110.545V4.07434H115.426C116.753 4.07434 117.757 4.32937 118.441 4.83944C119.124 5.34951 119.466 6.10441 119.466 7.10414C119.466 7.57341 119.303 8.03247 118.976 8.48133C118.65 8.93019 118.273 9.22603 117.844 9.36885C118.415 9.53207 118.89 9.83811 119.267 10.287C119.655 10.7256 119.849 11.2459 119.849 11.8478C119.849 12.8781 119.492 13.6636 118.778 14.2043C118.063 14.7348 117.048 15 115.732 15ZM113.131 8.52723H115.319C115.87 8.52723 116.278 8.41502 116.543 8.19059C116.809 7.95596 116.941 7.63972 116.941 7.24186C116.941 6.83381 116.804 6.51756 116.528 6.29314C116.253 6.06871 115.855 5.95649 115.335 5.95649H113.131V8.52723ZM113.131 10.3635V13.1178H115.503C116.074 13.1178 116.508 12.9954 116.804 12.7506C117.099 12.5058 117.247 12.164 117.247 11.7254C117.247 10.8174 116.666 10.3635 115.503 10.3635H113.131Z" fill="white"/>
<path d="M420.546 134.507C419.822 134.507 419.291 134.772 418.954 135.302H416.567L417.21 129.074H424.111V131.125H419.123L418.893 133.282C419.413 132.803 420.138 132.563 421.066 132.563C422.178 132.563 423.076 132.915 423.759 133.619C424.453 134.323 424.8 135.236 424.8 136.358C424.8 137.45 424.417 138.363 423.652 139.097C422.887 139.821 421.862 140.184 420.576 140.184C419.25 140.184 418.194 139.862 417.409 139.22C416.634 138.567 416.205 137.7 416.124 136.618H418.771C418.812 137.098 418.99 137.49 419.306 137.797C419.623 138.092 420.036 138.24 420.546 138.24C421.086 138.24 421.51 138.067 421.816 137.72C422.122 137.363 422.275 136.919 422.275 136.389C422.275 135.838 422.127 135.389 421.831 135.042C421.535 134.685 421.107 134.507 420.546 134.507ZM427.549 129.732C428.304 129.171 429.274 128.891 430.457 128.891C431.64 128.891 432.604 129.171 433.349 129.732C434.104 130.283 434.481 131.048 434.481 132.028C434.481 132.568 434.333 133.053 434.038 133.481C433.742 133.91 433.359 134.236 432.89 134.461C433.42 134.573 433.9 134.869 434.328 135.348C434.757 135.828 434.971 136.368 434.971 136.97C434.971 137.96 434.558 138.745 433.732 139.327C432.915 139.898 431.824 140.184 430.457 140.184C429.09 140.184 427.998 139.898 427.182 139.327C426.366 138.745 425.958 137.96 425.958 136.97C425.958 136.368 426.167 135.828 426.585 135.348C427.014 134.869 427.498 134.573 428.039 134.461C427.57 134.236 427.182 133.91 426.876 133.481C426.58 133.053 426.432 132.568 426.432 132.028C426.432 131.048 426.805 130.283 427.549 129.732ZM429.217 133.175C429.534 133.42 429.947 133.543 430.457 133.543C430.967 133.543 431.38 133.42 431.696 133.175C432.013 132.93 432.171 132.579 432.171 132.119C432.171 131.66 432.013 131.308 431.696 131.064C431.38 130.819 430.967 130.696 430.457 130.696C429.947 130.696 429.534 130.819 429.217 131.064C428.901 131.308 428.743 131.66 428.743 132.119C428.743 132.579 428.901 132.93 429.217 133.175ZM428.973 137.934C429.319 138.199 429.814 138.332 430.457 138.332C431.1 138.332 431.594 138.199 431.941 137.934C432.298 137.659 432.477 137.292 432.477 136.832C432.477 136.373 432.298 136.011 431.941 135.746C431.594 135.471 431.1 135.333 430.457 135.333C429.814 135.333 429.319 135.471 428.973 135.746C428.626 136.011 428.452 136.373 428.452 136.832C428.452 137.292 428.626 137.659 428.973 137.934ZM436.028 132.425V130.681C436.947 130.681 437.63 130.554 438.079 130.299C438.528 130.043 438.819 129.63 438.951 129.059H440.849V140H438.201V132.425H436.028ZM450.357 140H448.521L445.797 132.288H445.767V140H443.364V129.09H446.976L449.531 136.419H449.562L452.117 129.09H455.652V140H453.112V132.288H453.081L450.357 140Z" fill="white"/>
<path d="M1123.99 169.222C1123.3 169.222 1122.76 169.523 1122.35 170.125C1121.94 170.727 1121.74 171.487 1121.74 172.405C1122.3 171.507 1123.15 171.058 1124.31 171.058C1125.41 171.058 1126.32 171.41 1127.05 172.114C1127.77 172.808 1128.13 173.685 1128.13 174.746C1128.13 175.838 1127.74 176.746 1126.95 177.47C1126.18 178.184 1125.16 178.541 1123.91 178.541C1122.54 178.541 1121.44 178.051 1120.59 177.072C1119.74 176.083 1119.32 174.751 1119.32 173.078C1119.32 171.324 1119.76 169.916 1120.63 168.855C1121.52 167.784 1122.67 167.248 1124.08 167.248C1125.15 167.248 1126.04 167.544 1126.74 168.136C1127.45 168.717 1127.88 169.477 1128.01 170.416H1125.61C1125.38 169.62 1124.84 169.222 1123.99 169.222ZM1122.55 176.139C1122.89 176.496 1123.34 176.674 1123.89 176.674C1124.44 176.674 1124.88 176.496 1125.21 176.139C1125.55 175.782 1125.71 175.323 1125.71 174.761C1125.71 174.211 1125.55 173.762 1125.21 173.415C1124.88 173.058 1124.44 172.879 1123.89 172.879C1123.34 172.879 1122.89 173.058 1122.55 173.415C1122.2 173.762 1122.03 174.211 1122.03 174.761C1122.03 175.323 1122.2 175.782 1122.55 176.139ZM1136.78 178.357H1134.95L1132.22 170.645H1132.19V178.357H1129.79V167.447H1133.4L1135.96 174.777H1135.99L1138.54 167.447H1142.08V178.357H1139.54V170.645H1139.51L1136.78 178.357Z" fill="white"/>
<path d="M587.098 142.027V148.454H589.133V150.459H587.098V152.953H584.558V150.459H579.171V148.439L584.252 142.027H587.098ZM584.558 144.384L581.405 148.454H584.558V144.384ZM598.303 145.256C598.303 145.725 598.226 146.149 598.073 146.526C597.92 146.904 597.68 147.245 597.354 147.552C597.027 147.858 596.691 148.123 596.344 148.347C595.997 148.572 595.548 148.822 594.997 149.097C594.273 149.464 593.743 149.786 593.406 150.061C593.079 150.336 592.901 150.617 592.87 150.903H598.318V152.953H589.932V152.02C589.932 151.479 590.029 150.974 590.223 150.505C590.427 150.025 590.718 149.602 591.095 149.235C591.473 148.857 591.835 148.546 592.182 148.301C592.529 148.046 592.947 147.776 593.437 147.49C593.936 147.205 594.288 147.001 594.492 146.878C594.696 146.746 594.926 146.577 595.181 146.373C595.436 146.169 595.604 145.98 595.686 145.807C595.768 145.634 595.808 145.435 595.808 145.21C595.808 144.792 595.681 144.46 595.426 144.216C595.171 143.971 594.798 143.848 594.309 143.848C593.809 143.848 593.406 144.017 593.1 144.353C592.794 144.69 592.626 145.118 592.595 145.639H590.039C590.131 144.527 590.55 143.619 591.294 142.915C592.049 142.201 593.059 141.844 594.324 141.844C595.507 141.844 596.466 142.16 597.201 142.793C597.935 143.425 598.303 144.246 598.303 145.256ZM604.962 144.078H599.285V142.027H607.563V144.109C606.359 145.578 605.523 146.98 605.054 148.317C604.584 149.643 604.34 151.188 604.319 152.953H601.595C601.636 149.883 602.758 146.924 604.962 144.078ZM616.097 152.953H614.261L611.537 145.241H611.506V152.953H609.104V142.043H612.715L615.271 149.372H615.301L617.857 142.043H621.391V152.953H618.851V145.241H618.821L616.097 152.953Z" fill="white"/>
<path d="M936.544 175.374C936.544 176.261 936.162 177.011 935.397 177.623C934.642 178.235 933.606 178.541 932.29 178.541C931.005 178.541 929.959 178.22 929.153 177.577C928.358 176.934 927.914 176.088 927.822 175.037H930.347C930.388 175.506 930.587 175.884 930.944 176.169C931.311 176.445 931.76 176.582 932.29 176.582C932.861 176.582 933.305 176.455 933.621 176.2C933.938 175.945 934.096 175.598 934.096 175.159C934.096 174.272 933.499 173.828 932.305 173.828H931.219V171.961H932.275C932.765 171.961 933.152 171.849 933.438 171.625C933.734 171.39 933.882 171.048 933.882 170.599C933.882 170.191 933.744 169.86 933.468 169.605C933.203 169.35 932.831 169.222 932.351 169.222C931.841 169.222 931.428 169.37 931.112 169.666C930.806 169.951 930.638 170.324 930.607 170.783H928.174C928.245 169.783 928.648 168.947 929.383 168.273C930.128 167.59 931.127 167.248 932.382 167.248C933.616 167.248 934.575 167.559 935.259 168.182C935.952 168.794 936.299 169.559 936.299 170.477C936.299 171.099 936.121 171.625 935.764 172.053C935.407 172.481 934.932 172.752 934.341 172.864C935.024 172.976 935.56 173.257 935.947 173.706C936.345 174.154 936.544 174.71 936.544 175.374ZM942.342 169.222C941.659 169.222 941.113 169.523 940.705 170.125C940.297 170.727 940.093 171.487 940.093 172.405C940.654 171.507 941.511 171.058 942.664 171.058C943.765 171.058 944.678 171.41 945.403 172.114C946.127 172.808 946.489 173.685 946.489 174.746C946.489 175.838 946.096 176.746 945.311 177.47C944.535 178.184 943.52 178.541 942.266 178.541C940.899 178.541 939.792 178.051 938.945 177.072C938.098 176.083 937.675 174.751 937.675 173.078C937.675 171.324 938.114 169.916 938.991 168.855C939.879 167.784 941.026 167.248 942.434 167.248C943.505 167.248 944.393 167.544 945.097 168.136C945.811 168.717 946.234 169.477 946.367 170.416H943.964C943.74 169.62 943.199 169.222 942.342 169.222ZM940.904 176.139C941.251 176.496 941.7 176.674 942.25 176.674C942.801 176.674 943.24 176.496 943.566 176.139C943.903 175.782 944.071 175.323 944.071 174.761C944.071 174.211 943.903 173.762 943.566 173.415C943.24 173.058 942.801 172.879 942.25 172.879C941.7 172.879 941.251 173.058 940.904 173.415C940.557 173.762 940.384 174.211 940.384 174.761C940.384 175.323 940.557 175.782 940.904 176.139ZM955.14 178.357H953.304L950.58 170.645H950.549V178.357H948.147V167.447H951.758L954.314 174.777H954.344L956.9 167.447H960.434V178.357H957.894V170.645H957.864L955.14 178.357Z" fill="white"/>
<path d="M738.842 167.154V165.41C739.76 165.41 740.443 165.282 740.892 165.027C741.341 164.772 741.632 164.359 741.765 163.788H743.662V174.729H741.015V167.154H738.842ZM754.181 171.745C754.181 172.632 753.798 173.382 753.033 173.994C752.278 174.606 751.243 174.912 749.927 174.912C748.641 174.912 747.596 174.591 746.79 173.948C745.994 173.305 745.55 172.459 745.459 171.408H747.983C748.024 171.877 748.223 172.255 748.58 172.54C748.947 172.816 749.396 172.953 749.927 172.953C750.498 172.953 750.942 172.826 751.258 172.571C751.574 172.316 751.732 171.969 751.732 171.53C751.732 170.643 751.136 170.199 749.942 170.199H748.856V168.332H749.911C750.401 168.332 750.789 168.22 751.074 167.996C751.37 167.761 751.518 167.419 751.518 166.97C751.518 166.562 751.38 166.231 751.105 165.976C750.84 165.721 750.467 165.593 749.988 165.593C749.478 165.593 749.065 165.741 748.749 166.037C748.442 166.323 748.274 166.695 748.244 167.154H745.811C745.882 166.154 746.285 165.318 747.019 164.644C747.764 163.961 748.764 163.619 750.019 163.619C751.253 163.619 752.212 163.93 752.895 164.553C753.589 165.165 753.936 165.93 753.936 166.848C753.936 167.47 753.757 167.996 753.4 168.424C753.043 168.853 752.569 169.123 751.977 169.235C752.661 169.347 753.196 169.628 753.584 170.077C753.982 170.526 754.181 171.082 754.181 171.745ZM755.22 167.154V165.41C756.138 165.41 756.821 165.282 757.27 165.027C757.719 164.772 758.01 164.359 758.143 163.788H760.04V174.729H757.393V167.154H755.22ZM769.549 174.729H767.713L764.989 167.016H764.958V174.729H762.556V163.818H766.167L768.722 171.148H768.753L771.309 163.818H774.843V174.729H772.303V167.016H772.273L769.549 174.729Z" fill="white"/>
<path d="M406.264 201.194V195.198H407.981V201.142C407.981 202.217 407.673 203.071 407.058 203.704C406.451 204.328 405.609 204.64 404.534 204.64C403.554 204.64 402.761 204.372 402.154 203.834C401.547 203.296 401.235 202.555 401.217 201.61H402.856C402.874 202.182 403.034 202.62 403.338 202.924C403.641 203.218 404.04 203.366 404.534 203.366C405.687 203.366 406.264 202.642 406.264 201.194ZM416.409 204.484L415.538 202.208H411.35L410.465 204.484H408.774L412.507 195.198H414.445L418.178 204.484H416.409ZM413.444 196.862L411.883 200.869H415.018L413.483 196.862H413.444ZM420.282 199.828C420.282 200.903 420.508 201.749 420.959 202.364C421.418 202.971 422.064 203.275 422.897 203.275C424.093 203.275 424.8 202.707 425.017 201.571H426.695C426.521 202.516 426.114 203.266 425.472 203.821C424.83 204.367 423.972 204.64 422.897 204.64C421.596 204.64 420.542 204.198 419.736 203.314C418.93 202.429 418.526 201.267 418.526 199.828C418.526 198.397 418.93 197.244 419.736 196.368C420.542 195.484 421.596 195.041 422.897 195.041C423.972 195.041 424.83 195.319 425.472 195.874C426.122 196.42 426.53 197.166 426.695 198.111H425.017C424.8 196.975 424.093 196.407 422.897 196.407C422.064 196.407 421.418 196.711 420.959 197.318C420.508 197.925 420.282 198.761 420.282 199.828ZM434.499 204.484L431.235 200.439L429.947 201.792V204.484H428.217V195.198H429.947V199.867L434.239 195.198H436.216L432.379 199.23L436.58 204.484H434.499ZM437.005 201.675H438.67C438.722 202.265 438.969 202.694 439.411 202.963C439.854 203.231 440.396 203.366 441.037 203.366C441.609 203.366 442.078 203.24 442.442 202.989C442.815 202.737 443.001 202.386 443.001 201.935C443.001 201.588 442.884 201.319 442.65 201.129C442.425 200.929 442.034 200.777 441.479 200.673L439.776 200.361C438.128 200.066 437.304 199.225 437.304 197.838C437.304 197.014 437.629 196.342 438.28 195.822C438.939 195.302 439.776 195.041 440.79 195.041C441.9 195.041 442.776 195.276 443.417 195.744C444.059 196.212 444.423 196.88 444.51 197.747H442.884C442.823 197.296 442.607 196.949 442.234 196.706C441.87 196.455 441.393 196.329 440.803 196.329C440.248 196.329 439.806 196.459 439.476 196.719C439.147 196.979 438.982 197.318 438.982 197.734C438.982 198.098 439.095 198.367 439.32 198.54C439.546 198.705 439.927 198.839 440.465 198.944L442.26 199.295C443.881 199.598 444.692 200.444 444.692 201.831C444.692 202.663 444.35 203.34 443.665 203.86C442.988 204.38 442.13 204.64 441.089 204.64C439.927 204.64 438.973 204.393 438.228 203.899C437.491 203.396 437.083 202.655 437.005 201.675ZM453.471 196.381C454.277 197.274 454.681 198.428 454.681 199.841C454.681 201.254 454.277 202.408 453.471 203.301C452.673 204.194 451.598 204.64 450.245 204.64C448.893 204.64 447.813 204.194 447.007 203.301C446.209 202.408 445.81 201.254 445.81 199.841C445.81 198.428 446.213 197.274 447.02 196.381C447.826 195.488 448.901 195.041 450.245 195.041C451.589 195.041 452.665 195.488 453.471 196.381ZM452.235 202.351C452.695 201.736 452.925 200.899 452.925 199.841C452.925 198.783 452.695 197.946 452.235 197.331C451.776 196.715 451.112 196.407 450.245 196.407C449.378 196.407 448.715 196.715 448.255 197.331C447.796 197.946 447.566 198.783 447.566 199.841C447.566 200.899 447.796 201.736 448.255 202.351C448.715 202.967 449.378 203.275 450.245 203.275C451.112 203.275 451.776 202.967 452.235 202.351ZM458.279 195.198L462.649 201.779H462.675V195.198H464.314V204.484H462.714L457.941 197.292H457.915V204.484H456.263V195.198H458.279ZM420.328 220.484L418.507 213.318H418.481L416.66 220.484H414.775L412.212 211.198H413.981L415.841 218.403H415.867L417.675 211.198H419.418L421.226 218.403H421.252L423.099 211.198H424.79L422.227 220.484H420.328ZM432.42 220.484L431.549 218.208H427.361L426.476 220.484H424.785L428.518 211.198H430.456L434.189 220.484H432.42ZM429.455 212.862L427.894 216.869H431.028L429.494 212.862H429.455ZM437.416 211.198L441.786 217.779H441.812V211.198H443.451V220.484H441.851L437.078 213.292H437.052V220.484H435.4V211.198H437.416ZM445.054 215.828C445.054 214.397 445.47 213.244 446.303 212.368C447.135 211.484 448.215 211.041 449.542 211.041C450.625 211.041 451.493 211.315 452.143 211.861C452.802 212.399 453.227 213.144 453.418 214.098H451.714C451.471 212.971 450.747 212.407 449.542 212.407C448.683 212.407 448.011 212.715 447.525 213.331C447.049 213.938 446.81 214.77 446.81 215.828C446.81 216.895 447.044 217.736 447.512 218.351C447.989 218.967 448.657 219.275 449.516 219.275C450.201 219.275 450.755 219.093 451.18 218.728C451.605 218.364 451.818 217.896 451.818 217.324V216.999H450.023V215.75H453.535V220.484H452.195L452.078 219.158C451.913 219.591 451.571 219.947 451.05 220.224C450.539 220.502 449.992 220.64 449.411 220.64C448.111 220.64 447.057 220.198 446.251 219.314C445.453 218.429 445.054 217.267 445.054 215.828Z" fill="white"/>
<path d="M93.3926 202.102V196.106H95.1095V202.05C95.1095 203.125 94.8017 203.979 94.186 204.612C93.5791 205.236 92.738 205.549 91.6627 205.549C90.6829 205.549 89.8895 205.28 89.2825 204.742C88.6755 204.205 88.3634 203.463 88.346 202.518H89.9849C90.0022 203.09 90.1626 203.528 90.4661 203.832C90.7696 204.127 91.1685 204.274 91.6627 204.274C92.816 204.274 93.3926 203.55 93.3926 202.102ZM104.259 197.289C105.066 198.183 105.469 199.336 105.469 200.749C105.469 202.163 105.066 203.316 104.259 204.209C103.462 205.102 102.386 205.549 101.034 205.549C99.681 205.549 98.6014 205.102 97.795 204.209C96.9973 203.316 96.5984 202.163 96.5984 200.749C96.5984 199.336 97.0016 198.183 97.808 197.289C98.6144 196.396 99.6897 195.95 101.034 195.95C102.378 195.95 103.453 196.396 104.259 197.289ZM103.024 203.259C103.483 202.644 103.713 201.807 103.713 200.749C103.713 199.691 103.483 198.855 103.024 198.239C102.564 197.623 101.901 197.315 101.034 197.315C100.167 197.315 99.5032 197.623 99.0437 198.239C98.5841 198.855 98.3543 199.691 98.3543 200.749C98.3543 201.807 98.5841 202.644 99.0437 203.259C99.5032 203.875 100.167 204.183 101.034 204.183C101.901 204.183 102.564 203.875 103.024 203.259ZM111.213 202.102V196.106H112.93V202.05C112.93 203.125 112.622 203.979 112.007 204.612C111.4 205.236 110.559 205.549 109.483 205.549C108.504 205.549 107.71 205.28 107.103 204.742C106.496 204.205 106.184 203.463 106.167 202.518H107.806C107.823 203.09 107.983 203.528 108.287 203.832C108.59 204.127 108.989 204.274 109.483 204.274C110.637 204.274 111.213 203.55 111.213 202.102ZM114.926 205.393V196.106H116.656V205.393H114.926Z" fill="white"/>
<path d="M1086.76 205.393H1085.03V201.582L1081.44 196.106H1083.37L1085.94 200.073H1085.97L1088.48 196.106H1090.36L1086.76 201.582V205.393ZM1091.55 205.393V196.106H1093.28V204.027H1098.07V205.393H1091.55ZM1106.5 197.289C1107.31 198.183 1107.71 199.336 1107.71 200.749C1107.71 202.163 1107.31 203.316 1106.5 204.209C1105.7 205.102 1104.63 205.549 1103.28 205.549C1101.92 205.549 1100.84 205.102 1100.04 204.209C1099.24 203.316 1098.84 202.163 1098.84 200.749C1098.84 199.336 1099.24 198.183 1100.05 197.289C1100.86 196.396 1101.93 195.95 1103.28 195.95C1104.62 195.95 1105.7 196.396 1106.5 197.289ZM1105.27 203.259C1105.73 202.644 1105.96 201.807 1105.96 200.749C1105.96 199.691 1105.73 198.855 1105.27 198.239C1104.81 197.623 1104.14 197.315 1103.28 197.315C1102.41 197.315 1101.75 197.623 1101.29 198.239C1100.83 198.855 1100.6 199.691 1100.6 200.749C1100.6 201.807 1100.83 202.644 1101.29 203.259C1101.75 203.875 1102.41 204.183 1103.28 204.183C1104.14 204.183 1104.81 203.875 1105.27 203.259ZM1111.31 196.106L1115.68 202.687H1115.71V196.106H1117.34V205.393H1115.75L1110.97 198.2H1110.95V205.393H1109.29V196.106H1111.31ZM1126.18 205.393L1125.31 203.116H1121.12L1120.24 205.393H1118.54L1122.28 196.106H1124.22L1127.95 205.393H1126.18ZM1123.21 197.771L1121.65 201.777H1124.79L1123.25 197.771H1123.21ZM1131.38 200.736C1131.38 199.305 1131.8 198.152 1132.63 197.276C1133.46 196.392 1134.54 195.95 1135.87 195.95C1136.95 195.95 1137.82 196.223 1138.47 196.769C1139.13 197.307 1139.56 198.052 1139.75 199.006H1138.04C1137.8 197.879 1137.08 197.315 1135.87 197.315C1135.01 197.315 1134.34 197.623 1133.85 198.239C1133.38 198.846 1133.14 199.678 1133.14 200.736C1133.14 201.803 1133.37 202.644 1133.84 203.259C1134.32 203.875 1134.99 204.183 1135.84 204.183C1136.53 204.183 1137.08 204.001 1137.51 203.637C1137.93 203.272 1138.15 202.804 1138.15 202.232V201.907H1136.35V200.658H1139.86V205.393H1138.52L1138.41 204.066C1138.24 204.499 1137.9 204.855 1137.38 205.132C1136.87 205.41 1136.32 205.549 1135.74 205.549C1134.44 205.549 1133.39 205.106 1132.58 204.222C1131.78 203.338 1131.38 202.176 1131.38 200.736ZM1148.54 205.393L1147.66 203.116H1143.48L1142.59 205.393H1140.9L1144.63 196.106H1146.57L1150.3 205.393H1148.54ZM1145.57 197.771L1144.01 201.777H1147.14L1145.61 197.771H1145.57ZM1153.21 205.393H1151.51V196.106H1155.49C1156.59 196.106 1157.43 196.357 1158.03 196.86C1158.64 197.354 1158.94 198.074 1158.94 199.019C1158.94 199.696 1158.76 200.259 1158.38 200.71C1158.01 201.161 1157.54 201.478 1156.96 201.66L1159.29 205.393H1157.41L1155.29 201.92H1153.21V205.393ZM1153.21 200.567H1155.3C1156.59 200.567 1157.24 200.051 1157.24 199.019C1157.24 197.987 1156.59 197.471 1155.3 197.471H1153.21V200.567ZM1161.99 200.736C1161.99 201.811 1162.21 202.657 1162.66 203.272C1163.12 203.879 1163.77 204.183 1164.6 204.183C1165.8 204.183 1166.5 203.615 1166.72 202.479H1168.4C1168.22 203.424 1167.82 204.174 1167.17 204.729C1166.53 205.276 1165.67 205.549 1164.6 205.549C1163.3 205.549 1162.25 205.106 1161.44 204.222C1160.63 203.338 1160.23 202.176 1160.23 200.736C1160.23 199.305 1160.63 198.152 1161.44 197.276C1162.25 196.392 1163.3 195.95 1164.6 195.95C1165.67 195.95 1166.53 196.227 1167.17 196.782C1167.83 197.328 1168.23 198.074 1168.4 199.019H1166.72C1166.5 197.883 1165.8 197.315 1164.6 197.315C1163.77 197.315 1163.12 197.619 1162.66 198.226C1162.21 198.833 1161.99 199.67 1161.99 200.736ZM1169.92 205.393V196.106H1171.65V205.393H1169.92ZM1180.48 205.393L1179.61 203.116H1175.42L1174.54 205.393H1172.85L1176.58 196.106H1178.52L1182.25 205.393H1180.48ZM1177.51 197.771L1175.95 201.777H1179.09L1177.55 197.771H1177.51Z" fill="white"/>
<path d="M592.686 195.198L597.056 201.779H597.082V195.198H598.721V204.484H597.121L592.348 197.292H592.322L592.322 204.484H590.67V195.198H592.686ZM600.832 204.484V195.198H602.562V204.484H600.832ZM610.95 204.484L607.685 200.439L606.397 201.792V204.484H604.668V195.198H606.397V199.867L610.69 195.198H612.667L608.83 199.23L613.031 204.484H610.95ZM614.27 204.484V195.198H616V204.484H614.27Z" fill="white"/>
<path d="M889.109 204.484L888.238 202.208H884.05L883.165 204.484H881.474L885.207 195.198H887.145L890.878 204.484H889.109ZM886.144 196.862L884.583 200.869H887.718L886.183 196.862H886.144ZM893.983 204.484V196.563H890.653V195.198H899.043V196.563H895.7V204.484H893.983ZM906.435 204.484L905.563 202.208H901.375L900.491 204.484H898.8L902.533 195.198H904.471L908.204 204.484H906.435ZM903.469 196.862L901.908 200.869H905.043L903.508 196.862H903.469ZM911.105 204.484H909.414V195.198H913.394C914.487 195.198 915.332 195.449 915.931 195.952C916.538 196.446 916.841 197.166 916.841 198.111C916.841 198.787 916.655 199.351 916.282 199.802C915.909 200.253 915.436 200.569 914.864 200.751L917.192 204.484H915.306L913.186 201.012H911.105V204.484ZM911.105 199.659H913.199C914.491 199.659 915.137 199.143 915.137 198.111C915.137 197.079 914.491 196.563 913.199 196.563H911.105V199.659ZM925.36 204.484L924.489 202.208H920.301L919.416 204.484H917.725L921.458 195.198H923.396L927.129 204.484H925.36ZM922.395 196.862L920.834 200.869H923.969L922.434 196.862H922.395ZM927.703 201.675H929.368C929.42 202.265 929.667 202.694 930.11 202.963C930.552 203.231 931.094 203.366 931.736 203.366C932.308 203.366 932.776 203.24 933.14 202.989C933.513 202.737 933.7 202.386 933.7 201.935C933.7 201.588 933.583 201.319 933.348 201.129C933.123 200.929 932.733 200.777 932.178 200.673L930.474 200.361C928.826 200.066 928.003 199.225 928.003 197.838C928.003 197.014 928.328 196.342 928.978 195.822C929.637 195.302 930.474 195.041 931.488 195.041C932.598 195.041 933.474 195.276 934.116 195.744C934.757 196.212 935.122 196.88 935.208 197.747H933.583C933.522 197.296 933.305 196.949 932.932 196.706C932.568 196.455 932.091 196.329 931.501 196.329C930.946 196.329 930.504 196.459 930.175 196.719C929.845 196.979 929.68 197.318 929.68 197.734C929.68 198.098 929.793 198.367 930.019 198.54C930.244 198.705 930.626 198.839 931.163 198.944L932.958 199.295C934.58 199.598 935.39 200.444 935.39 201.831C935.39 202.663 935.048 203.34 934.363 203.86C933.687 204.38 932.828 204.64 931.788 204.64C930.626 204.64 929.672 204.393 928.926 203.899C928.189 203.396 927.782 202.655 927.703 201.675ZM936.99 204.484V195.198H938.72V199.1H943.481V195.198H945.197V204.484H943.481V200.452H938.72V204.484H936.99ZM947.304 204.484V195.198H949.034V204.484H947.304ZM951.14 204.484V195.198H952.87V204.484H951.14ZM957.2 199.828C957.2 198.397 957.616 197.244 958.448 196.368C959.281 195.484 960.36 195.041 961.687 195.041C962.771 195.041 963.638 195.315 964.288 195.861C964.947 196.399 965.372 197.144 965.563 198.098H963.859C963.616 196.971 962.892 196.407 961.687 196.407C960.829 196.407 960.157 196.715 959.671 197.331C959.194 197.938 958.956 198.77 958.956 199.828C958.956 200.895 959.19 201.736 959.658 202.351C960.135 202.967 960.803 203.275 961.661 203.275C962.346 203.275 962.901 203.093 963.326 202.728C963.751 202.364 963.963 201.896 963.963 201.324V200.999H962.168V199.75H965.68V204.484H964.34L964.223 203.158C964.059 203.591 963.716 203.947 963.196 204.224C962.684 204.502 962.138 204.64 961.557 204.64C960.256 204.64 959.203 204.198 958.396 203.314C957.599 202.429 957.2 201.267 957.2 199.828ZM974.352 204.484L973.48 202.208H969.292L968.408 204.484H966.717L970.45 195.198H972.388L976.121 204.484H974.352ZM971.386 196.862L969.825 200.869H972.96L971.425 196.862H971.386ZM983.614 204.484L980.349 200.439L979.061 201.792V204.484H977.331V195.198H979.061V199.867L983.354 195.198H985.331L981.494 199.23L985.695 204.484H983.614ZM993.216 204.484L989.952 200.439L988.664 201.792V204.484H986.934V195.198H988.664V199.867L992.956 195.198H994.933L991.096 199.23L995.297 204.484H993.216ZM1003.2 196.381C1004 197.274 1004.4 198.428 1004.4 199.841C1004.4 201.254 1004 202.408 1003.2 203.301C1002.4 204.194 1001.32 204.64 999.969 204.64C998.617 204.64 997.537 204.194 996.731 203.301C995.933 202.408 995.534 201.254 995.534 199.841C995.534 198.428 995.937 197.274 996.744 196.381C997.55 195.488 998.625 195.041 999.969 195.041C1001.31 195.041 1002.39 195.488 1003.2 196.381ZM1001.96 202.351C1002.42 201.736 1002.65 200.899 1002.65 199.841C1002.65 198.783 1002.42 197.946 1001.96 197.331C1001.5 196.715 1000.84 196.407 999.969 196.407C999.102 196.407 998.439 196.715 997.979 197.331C997.52 197.946 997.29 198.783 997.29 199.841C997.29 200.899 997.52 201.736 997.979 202.351C998.439 202.967 999.102 203.275 999.969 203.275C1000.84 203.275 1001.5 202.967 1001.96 202.351Z" fill="white"/>
<path d="M750.267 202.67H746.196V193.383H749.929C751.022 193.383 751.854 193.6 752.426 194.033C752.999 194.458 753.285 195.087 753.285 195.919C753.285 196.327 753.142 196.726 752.856 197.116C752.578 197.498 752.253 197.745 751.88 197.857C752.4 197.996 752.825 198.261 753.155 198.651C753.493 199.041 753.662 199.501 753.662 200.03C753.662 200.888 753.367 201.543 752.778 201.994C752.188 202.444 751.351 202.67 750.267 202.67ZM747.887 197.311H749.916C750.48 197.311 750.905 197.194 751.191 196.96C751.477 196.726 751.62 196.401 751.62 195.984C751.62 195.1 751.056 194.658 749.929 194.658H747.887V197.311ZM747.887 198.547V201.395H750.137C750.727 201.395 751.178 201.27 751.49 201.018C751.802 200.767 751.958 200.415 751.958 199.965C751.958 199.522 751.798 199.175 751.477 198.924C751.165 198.673 750.714 198.547 750.124 198.547H747.887ZM755.253 202.67V193.383H756.982V202.67H755.253ZM763.16 202.67H759.089V193.383H762.822C763.914 193.383 764.747 193.6 765.319 194.033C765.891 194.458 766.177 195.087 766.177 195.919C766.177 196.327 766.034 196.726 765.748 197.116C765.471 197.498 765.145 197.745 764.773 197.857C765.293 197.996 765.718 198.261 766.047 198.651C766.385 199.041 766.554 199.501 766.554 200.03C766.554 200.888 766.26 201.543 765.67 201.994C765.08 202.444 764.244 202.67 763.16 202.67ZM760.779 197.311H762.808C763.372 197.311 763.797 197.194 764.083 196.96C764.369 196.726 764.512 196.401 764.512 195.984C764.512 195.1 763.949 194.658 762.822 194.658H760.779V197.311ZM760.779 198.547V201.395H763.03C763.619 201.395 764.07 201.27 764.382 201.018C764.694 200.767 764.851 200.415 764.851 199.965C764.851 199.522 764.69 199.175 764.369 198.924C764.057 198.673 763.606 198.547 763.017 198.547H760.779ZM768.145 202.67V193.383H769.875V202.67H768.145Z" fill="white"/>
<path d="M229.922 202.67H228.231V193.383H232.211C233.304 193.383 234.149 193.635 234.748 194.137C235.355 194.632 235.658 195.351 235.658 196.297C235.658 196.973 235.472 197.537 235.099 197.987C234.726 198.438 234.253 198.755 233.681 198.937L236.009 202.67H234.123L232.003 199.197H229.922V202.67ZM229.922 197.844H232.016C233.308 197.844 233.954 197.328 233.954 196.297C233.954 195.265 233.308 194.749 232.016 194.749H229.922V197.844ZM237.453 202.67V193.383H239.183V202.67H237.453ZM242.538 198.014C242.538 199.089 242.763 199.934 243.214 200.55C243.673 201.157 244.319 201.46 245.152 201.46C246.349 201.46 247.055 200.892 247.272 199.756H248.95C248.776 200.702 248.369 201.452 247.727 202.007C247.086 202.553 246.227 202.826 245.152 202.826C243.851 202.826 242.798 202.384 241.991 201.499C241.185 200.615 240.782 199.453 240.782 198.014C240.782 196.583 241.185 195.43 241.991 194.554C242.798 193.669 243.851 193.227 245.152 193.227C246.227 193.227 247.086 193.505 247.727 194.059C248.378 194.606 248.785 195.351 248.95 196.297H247.272C247.055 195.161 246.349 194.593 245.152 194.593C244.319 194.593 243.673 194.896 243.214 195.503C242.763 196.11 242.538 196.947 242.538 198.014ZM250.472 202.67V193.383H252.202V197.285H256.963V193.383H258.68V202.67H256.963V198.638H252.202V202.67H250.472ZM267.588 202.67H263.517V193.383H267.25C268.343 193.383 269.175 193.6 269.747 194.033C270.32 194.458 270.606 195.087 270.606 195.919C270.606 196.327 270.463 196.726 270.177 197.116C269.899 197.498 269.574 197.745 269.201 197.857C269.721 197.996 270.146 198.261 270.476 198.651C270.814 199.041 270.983 199.501 270.983 200.03C270.983 200.888 270.688 201.543 270.099 201.994C269.509 202.444 268.672 202.67 267.588 202.67ZM265.208 197.311H267.237C267.801 197.311 268.226 197.194 268.512 196.96C268.798 196.726 268.941 196.401 268.941 195.984C268.941 195.1 268.377 194.658 267.25 194.658H265.208V197.311ZM265.208 198.547V201.395H267.458C268.048 201.395 268.499 201.27 268.811 201.018C269.123 200.767 269.279 200.415 269.279 199.965C269.279 199.522 269.119 199.175 268.798 198.924C268.486 198.673 268.035 198.547 267.445 198.547H265.208ZM274.265 202.67H272.574V193.383H276.554C277.646 193.383 278.492 193.635 279.09 194.137C279.697 194.632 280.001 195.351 280.001 196.297C280.001 196.973 279.814 197.537 279.441 197.987C279.068 198.438 278.596 198.755 278.023 198.937L280.352 202.67H278.466L276.346 199.197H274.265V202.67ZM274.265 197.844H276.359C277.651 197.844 278.297 197.328 278.297 196.297C278.297 195.265 277.651 194.749 276.359 194.749H274.265V197.844ZM281.795 202.67V193.383H283.525V202.67H281.795ZM292.356 202.67L291.484 200.394H287.296L286.412 202.67H284.721L288.454 193.383H290.392L294.125 202.67H292.356ZM289.39 195.048L287.829 199.054H290.964L289.429 195.048H289.39ZM297.351 193.383L301.722 199.965H301.748V193.383H303.387V202.67H301.787L297.013 195.477H296.987V202.67H295.335V193.383H297.351Z" fill="white"/>
</svg>
