<svg width="646" height="566" viewBox="0 0 646 566" fill="none" xmlns="http://www.w3.org/2000/svg">
<path d="M376.679 189.13C376.679 293.287 292.476 377.721 188.609 377.721C84.742 377.721 0.538682 293.287 0.538682 189.13C0.538682 84.9725 84.742 0.538682 188.609 0.538682C292.476 0.538682 376.679 84.9725 376.679 189.13Z" fill="#FF0000" fill-opacity="0.05" stroke="#FF0000" stroke-width="1.07736"/>
<path d="M419.509 170.208C420.84 170.208 421.653 169.58 421.653 168.342C421.653 167.159 420.488 166.623 418.77 166.623H417.883V164.11H418.677C420.433 164.11 421.486 163.537 421.486 162.354C421.486 161.374 420.507 160.857 419.509 160.857C418.363 160.857 417.365 161.301 417.162 162.724H414.15C414.445 159.785 416.959 158.602 419.657 158.602C422.022 158.602 424.554 159.656 424.554 162.095C424.554 163.5 423.63 164.609 422.688 165.145C424.018 165.68 424.776 167.085 424.776 168.323C424.776 171.077 422.244 172.463 419.454 172.463C416.792 172.463 414.334 171.151 413.983 168.028H417.014C417.217 169.598 418.345 170.208 419.509 170.208ZM435.67 164.424C434.469 164.424 433.471 165.2 433.471 167.251C433.471 169.303 434.469 170.097 435.67 170.097C436.89 170.097 437.888 169.099 437.888 167.251C437.888 165.403 436.89 164.424 435.67 164.424ZM433.619 158.824V163.629C434.266 162.539 435.596 162.058 436.668 162.058C439.237 162.058 441.048 163.999 441.048 167.251C441.048 170.504 439.237 172.463 436.668 172.463C435.596 172.463 434.266 171.982 433.619 170.892V172.223H430.57V158.824H433.619ZM442.589 162.28H445.657V172.223H442.589V162.28ZM442.589 158.824H445.639V161.264H442.589V158.824ZM450.89 158.824V172.223H447.841V158.824H450.89ZM456.124 158.824V172.223H453.075V158.824H456.124ZM458.309 162.28H461.377V172.223H458.309V162.28ZM458.309 158.824H461.358V161.264H458.309V158.824ZM468.236 164.35C467.035 164.35 466.074 165.089 466.074 167.214C466.074 169.303 466.998 170.097 468.236 170.097C469.475 170.097 470.399 169.303 470.399 167.214C470.399 165.089 469.438 164.35 468.236 164.35ZM468.236 161.984C470.99 161.984 473.503 163.611 473.503 167.214C473.503 170.818 470.99 172.463 468.236 172.463C465.483 172.463 462.969 170.818 462.969 167.214C462.969 163.611 465.483 161.984 468.236 161.984ZM478.142 162.28V163.592C478.586 162.853 479.658 162.058 481.229 162.058C483.779 162.058 484.574 163.555 484.574 166.253V172.223H481.524V167.011C481.524 165.588 481.469 164.424 479.991 164.424C478.678 164.424 478.142 165.274 478.142 167.122V172.223H475.093V162.28H478.142ZM492.741 162.28L494.848 169.284L496.862 162.28H500.004L496.456 172.223H493.074L489.452 162.28H492.741ZM501.1 162.28H504.168V172.223H501.1V162.28ZM501.1 158.824H504.149V161.264H501.1V158.824ZM513.356 169.099H516.165C515.278 171.446 513.19 172.463 511.212 172.463C507.978 172.463 505.76 170.504 505.76 167.196C505.76 164.017 508.181 161.984 511.083 161.984C514.391 161.984 516.405 164.479 516.202 168.028H508.828C508.92 169.432 510.011 170.097 511.12 170.097C512.284 170.097 513.005 169.691 513.356 169.099ZM511.083 164.313C509.992 164.313 509.031 164.867 508.865 166.179H513.171C513.116 164.923 512.247 164.313 511.083 164.313ZM522.323 162.28H525.465L526.629 169.025L527.941 162.28H531.064L528.773 172.223H525.224L523.894 164.886L522.563 172.223H519.033L516.742 162.28H519.865L521.177 169.025L522.323 162.28ZM541.123 165.2H538.277C538.074 164.461 537.297 164.239 536.336 164.239C535.283 164.239 534.747 164.479 534.747 164.978C534.747 165.44 535.098 165.699 535.967 165.865L537.815 166.198C540.199 166.641 541.345 167.344 541.345 169.099C541.345 171.336 539.293 172.463 536.54 172.463C533.915 172.463 532.012 171.317 531.661 168.989H534.488C534.766 169.95 535.523 170.245 536.577 170.245C537.667 170.245 538.425 169.95 538.425 169.358C538.425 168.915 538.037 168.637 536.872 168.434L535.098 168.138C533.176 167.824 531.864 166.863 531.864 165.089C531.864 163.112 533.952 162.021 536.41 162.021C538.683 162.021 540.735 162.927 541.123 165.2Z" fill="white"/>
<path d="M417.926 183.406C419.668 183.406 420.916 184.277 420.916 185.876C420.916 188.06 418.641 189.984 416.002 191.895H421.176V193H414.39V191.934C417.718 189.477 419.668 187.709 419.668 186.032C419.668 185.044 419.031 184.394 417.9 184.394C416.886 184.394 415.911 184.953 415.872 186.513H414.65C414.611 184.641 415.911 183.406 417.926 183.406ZM429.013 188.281C429.013 185.668 428.077 184.394 426.608 184.394C425.113 184.394 424.203 185.668 424.203 188.281C424.203 190.92 425.113 192.181 426.608 192.181C428.103 192.181 429.013 190.92 429.013 188.281ZM430.274 188.281C430.274 191.258 429.117 193.169 426.608 193.169C424.099 193.169 422.942 191.258 422.942 188.281C422.942 185.304 424.099 183.406 426.608 183.406C429.117 183.406 430.274 185.304 430.274 188.281ZM435.086 193H433.903V185.629H431.719V184.823C433.058 184.784 433.773 184.589 434.28 183.575H435.086V193ZM438.988 189.984C438.988 191.284 439.794 192.181 441.042 192.181C442.238 192.181 443.109 191.271 443.109 189.984C443.109 188.697 442.264 187.748 441.055 187.748C439.82 187.748 438.988 188.697 438.988 189.984ZM441.159 184.394C439.69 184.394 438.91 185.85 438.845 188.034C439.274 187.293 440.08 186.721 441.328 186.721C443.083 186.721 444.37 188.034 444.37 189.919C444.37 191.674 443.07 193.169 441.055 193.169C438.702 193.169 437.623 191.531 437.623 188.619C437.623 185.967 438.559 183.406 441.302 183.406C443.148 183.406 444.006 184.563 444.214 185.759H442.927C442.771 184.914 442.134 184.394 441.159 184.394ZM454.075 189.997H449.941V188.879H454.075V189.997ZM462.961 183.406C464.703 183.406 465.951 184.277 465.951 185.876C465.951 188.06 463.676 189.984 461.037 191.895H466.211V193H459.425V191.934C462.753 189.477 464.703 187.709 464.703 186.032C464.703 185.044 464.066 184.394 462.935 184.394C461.921 184.394 460.946 184.953 460.907 186.513H459.685C459.646 184.641 460.946 183.406 462.961 183.406ZM474.048 188.281C474.048 185.668 473.112 184.394 471.643 184.394C470.148 184.394 469.238 185.668 469.238 188.281C469.238 190.92 470.148 192.181 471.643 192.181C473.138 192.181 474.048 190.92 474.048 188.281ZM475.309 188.281C475.309 191.258 474.152 193.169 471.643 193.169C469.134 193.169 467.977 191.258 467.977 188.281C467.977 185.304 469.134 183.406 471.643 183.406C474.152 183.406 475.309 185.304 475.309 188.281ZM480.121 193H478.938V185.629H476.754V184.823C478.093 184.784 478.808 184.589 479.315 183.575H480.121V193ZM487.949 186.591C487.949 185.291 487.156 184.394 485.908 184.394C484.686 184.394 483.841 185.304 483.841 186.591C483.841 187.878 484.686 188.814 485.895 188.814C487.13 188.814 487.949 187.878 487.949 186.591ZM485.778 192.181C487.234 192.181 488.04 190.725 488.105 188.541C487.676 189.282 486.857 189.854 485.609 189.854C483.867 189.854 482.58 188.554 482.58 186.643C482.58 184.901 483.88 183.406 485.895 183.406C488.248 183.406 489.327 185.044 489.327 187.956C489.327 190.608 488.352 193.169 485.648 193.169C483.802 193.169 482.944 192.012 482.736 190.816H484.023C484.179 191.661 484.803 192.181 485.778 192.181Z" fill="#7B7B7B"/>
<path d="M450.145 483.321C450.145 528.485 413.3 565.103 367.842 565.103C322.384 565.103 285.539 528.485 285.539 483.321C285.539 438.157 322.384 401.539 367.842 401.539C413.3 401.539 450.145 438.157 450.145 483.321Z" fill="#FF0000" fill-opacity="0.05" stroke="#FF0000" stroke-width="1.07736"/>
<path d="M493.927 475.562C490.661 475.562 488.948 473.24 488.948 469.526C488.948 465.828 490.661 463.554 493.927 463.554C497.177 463.554 498.89 465.828 498.89 469.526C498.89 473.24 497.177 475.562 493.927 475.562ZM493.927 473.608C495.272 473.608 496.184 472.344 496.184 469.526C496.184 466.724 495.272 465.507 493.927 465.507C492.566 465.507 491.653 466.724 491.653 469.526C491.653 472.344 492.566 473.608 493.927 473.608ZM502.448 475.354H499.47V472.504H502.448V475.354ZM508.609 467.188L505.855 470.583H508.609V467.188ZM512.851 470.583V472.904H511.25V475.354H508.609V472.904H502.957V470.839L508.801 463.746H511.25V470.583H512.851ZM518.004 473.608C519.156 473.608 519.861 473.064 519.861 471.991C519.861 470.967 518.852 470.503 517.363 470.503H516.595V468.325H517.283C518.804 468.325 519.717 467.829 519.717 466.804C519.717 465.956 518.868 465.507 518.004 465.507C517.011 465.507 516.147 465.892 515.97 467.124H513.361C513.617 464.579 515.794 463.554 518.132 463.554C520.181 463.554 522.374 464.467 522.374 466.58C522.374 467.797 521.574 468.757 520.757 469.222C521.91 469.686 522.566 470.903 522.566 471.975C522.566 474.361 520.373 475.562 517.956 475.562C515.65 475.562 513.521 474.425 513.217 471.719H515.842C516.018 473.08 516.995 473.608 518.004 473.608ZM532.004 468.597C530.963 468.597 530.099 469.27 530.099 471.047C530.099 472.824 530.963 473.512 532.004 473.512C533.061 473.512 533.925 472.648 533.925 471.047C533.925 469.446 533.061 468.597 532.004 468.597ZM530.227 463.746V467.909C530.787 466.964 531.94 466.548 532.869 466.548C535.094 466.548 536.663 468.229 536.663 471.047C536.663 473.865 535.094 475.562 532.869 475.562C531.94 475.562 530.787 475.145 530.227 474.201V475.354H527.585V463.746H530.227ZM537.998 466.74H540.656V475.354H537.998V466.74ZM537.998 463.746H540.64V465.86H537.998V463.746ZM545.189 463.746V475.354H542.548V463.746H545.189ZM549.723 463.746V475.354H547.082V463.746H549.723ZM551.616 466.74H554.273V475.354H551.616V466.74ZM551.616 463.746H554.257V465.86H551.616V463.746ZM560.216 468.533C559.175 468.533 558.343 469.174 558.343 471.015C558.343 472.824 559.143 473.512 560.216 473.512C561.289 473.512 562.089 472.824 562.089 471.015C562.089 469.174 561.257 468.533 560.216 468.533ZM560.216 466.484C562.601 466.484 564.779 467.893 564.779 471.015C564.779 474.137 562.601 475.562 560.216 475.562C557.831 475.562 555.653 474.137 555.653 471.015C555.653 467.893 557.831 466.484 560.216 466.484ZM568.798 466.74V467.877C569.182 467.237 570.11 466.548 571.471 466.548C573.681 466.548 574.369 467.845 574.369 470.182V475.354H571.727V470.839C571.727 469.606 571.679 468.597 570.399 468.597C569.262 468.597 568.798 469.334 568.798 470.935V475.354H566.156V466.74H568.798ZM581.444 466.74L583.27 472.808L585.015 466.74H587.736L584.662 475.354H581.733L578.595 466.74H581.444ZM588.686 466.74H591.343V475.354H588.686V466.74ZM588.686 463.746H591.327V465.86H588.686V463.746ZM599.303 472.648H601.736C600.968 474.681 599.159 475.562 597.446 475.562C594.644 475.562 592.723 473.865 592.723 470.999C592.723 468.245 594.82 466.484 597.334 466.484C600.199 466.484 601.945 468.645 601.768 471.719H595.38C595.461 472.936 596.405 473.512 597.366 473.512C598.374 473.512 598.999 473.16 599.303 472.648ZM597.334 468.501C596.389 468.501 595.557 468.982 595.413 470.118H599.143C599.095 469.03 598.342 468.501 597.334 468.501ZM607.071 466.74H609.793L610.801 472.584L611.938 466.74H614.644L612.658 475.354H609.585L608.432 468.998L607.279 475.354H604.221L602.236 466.74H604.942L606.078 472.584L607.071 466.74ZM623.357 469.27H620.892C620.716 468.629 620.043 468.437 619.211 468.437C618.298 468.437 617.834 468.645 617.834 469.078C617.834 469.478 618.138 469.702 618.891 469.846L620.492 470.134C622.557 470.519 623.55 471.127 623.55 472.648C623.55 474.585 621.772 475.562 619.387 475.562C617.114 475.562 615.465 474.569 615.16 472.552H617.61C617.85 473.384 618.506 473.64 619.419 473.64C620.364 473.64 621.02 473.384 621.02 472.872C621.02 472.488 620.684 472.248 619.675 472.071L618.138 471.815C616.473 471.543 615.337 470.711 615.337 469.174C615.337 467.461 617.146 466.516 619.275 466.516C621.244 466.516 623.021 467.301 623.357 469.27Z" fill="white"/>
<path d="M491.926 486.406C493.668 486.406 494.916 487.277 494.916 488.876C494.916 491.06 492.641 492.984 490.002 494.895H495.176V496H488.39V494.934C491.718 492.477 493.668 490.709 493.668 489.032C493.668 488.044 493.031 487.394 491.9 487.394C490.886 487.394 489.911 487.953 489.872 489.513H488.65C488.611 487.641 489.911 486.406 491.926 486.406ZM503.013 491.281C503.013 488.668 502.077 487.394 500.608 487.394C499.113 487.394 498.203 488.668 498.203 491.281C498.203 493.92 499.113 495.181 500.608 495.181C502.103 495.181 503.013 493.92 503.013 491.281ZM504.274 491.281C504.274 494.258 503.117 496.169 500.608 496.169C498.099 496.169 496.942 494.258 496.942 491.281C496.942 488.304 498.099 486.406 500.608 486.406C503.117 486.406 504.274 488.304 504.274 491.281ZM509.489 486.406C511.231 486.406 512.479 487.277 512.479 488.876C512.479 491.06 510.204 492.984 507.565 494.895H512.739V496H505.953V494.934C509.281 492.477 511.231 490.709 511.231 489.032C511.231 488.044 510.594 487.394 509.463 487.394C508.449 487.394 507.474 487.953 507.435 489.513H506.213C506.174 487.641 507.474 486.406 509.489 486.406ZM520.576 491.281C520.576 488.668 519.64 487.394 518.171 487.394C516.676 487.394 515.766 488.668 515.766 491.281C515.766 493.92 516.676 495.181 518.171 495.181C519.666 495.181 520.576 493.92 520.576 491.281ZM521.837 491.281C521.837 494.258 520.68 496.169 518.171 496.169C515.662 496.169 514.505 494.258 514.505 491.281C514.505 488.304 515.662 486.406 518.171 486.406C520.68 486.406 521.837 488.304 521.837 491.281ZM527.818 492.997H523.684V491.879H527.818V492.997ZM532.716 486.406C534.458 486.406 535.706 487.277 535.706 488.876C535.706 491.06 533.431 492.984 530.792 494.895H535.966V496H529.18V494.934C532.508 492.477 534.458 490.709 534.458 489.032C534.458 488.044 533.821 487.394 532.69 487.394C531.676 487.394 530.701 487.953 530.662 489.513H529.44C529.401 487.641 530.701 486.406 532.716 486.406ZM543.803 491.281C543.803 488.668 542.867 487.394 541.398 487.394C539.903 487.394 538.993 488.668 538.993 491.281C538.993 493.92 539.903 495.181 541.398 495.181C542.893 495.181 543.803 493.92 543.803 491.281ZM545.064 491.281C545.064 494.258 543.907 496.169 541.398 496.169C538.889 496.169 537.732 494.258 537.732 491.281C537.732 488.304 538.889 486.406 541.398 486.406C543.907 486.406 545.064 488.304 545.064 491.281ZM550.279 486.406C552.021 486.406 553.269 487.277 553.269 488.876C553.269 491.06 550.994 492.984 548.355 494.895H553.529V496H546.743V494.934C550.071 492.477 552.021 490.709 552.021 489.032C552.021 488.044 551.384 487.394 550.253 487.394C549.239 487.394 548.264 487.953 548.225 489.513H547.003C546.964 487.641 548.264 486.406 550.279 486.406ZM558.337 495.181C559.585 495.181 560.469 494.544 560.469 493.361C560.469 492.009 559.26 491.567 557.752 491.567H557.557V490.488H557.713C559.364 490.488 560.222 490.033 560.222 488.928C560.222 487.927 559.39 487.394 558.389 487.394C557.128 487.394 556.439 488.148 556.335 489.227H555.113C555.256 487.563 556.439 486.406 558.415 486.406C560.04 486.406 561.47 487.069 561.47 488.798C561.47 489.773 560.924 490.579 559.936 490.982C561.34 491.437 561.73 492.347 561.73 493.348C561.73 495.246 560.131 496.169 558.324 496.169C556.088 496.169 555.113 494.791 554.97 493.218H556.192C556.335 494.375 556.998 495.181 558.337 495.181Z" fill="#7B7B7B"/>
</svg>
